<svg xmlns="http://www.w3.org/2000/svg" fill="#21b296" viewBox="0 0 93.398 93.398"><metadata/><path d="M59.825 54.34c.029 1.223-.058 2.646.093 4.064.05.49.396.947.812 1.12.854.351 1.717.507 2.63.293 1.227-.288 1.587-.582 1.698-1.394.085-.622.096-1.265.096-1.89-.003-2.092.11-4.185-.061-6.278-.069-.855-.5-1.376-1.212-1.617-1.12-.375-2.246-.285-3.315.27-.365.19-.617.484-.625.873-.008.535-.143 1.05-.124 1.588.032.923.008 1.85.008 2.971zM17.015 52.803c.876-.167 1.765-.291 2.654-.244 1.289.072 1.831-.632 2.162-1.645.264-.815-.193-1.831-.963-2.133-.699-.275-1.41-.413-2.188-.283-1.315.22-2.04.598-1.956 2.254-.148.474.098 1.09-.09 1.702-.068.222.109.402.381.349z"/><path d="M46.686.03C20.902.03 0 20.93 0 46.714c0 25.783 20.902 46.683 46.686 46.683 25.783 0 46.683-20.902 46.683-46.683S72.467.029 46.686.029zM80.67 43.036c.818-.264 1.63-.161 2.448-.071a.36.36 0 01.323.33c.02.188-.111.23-.278.278-1.201.336-2.405.643-3.723.596-.847.055-1.706-.146-2.561-.395-1.035-.301-2.072-.166-3.109.032-.402.077-.802.193-1.22.161-.074-.005-.18.035-.198-.087-.016-.1.008-.156.116-.23.678-.458 1.44-.659 2.228-.788 1.225-.202 2.405.005 3.575.38.812.26 1.624.043 2.4-.206zm-2.685 7.377c.008-1.048-.431-1.538-1.564-1.776-.997-.209-1.968-.121-2.857.471-.426.283-.635.643-.617 1.149.01.336.006.672.003 1.008-.032 3.339-.069 6.678-.098 10.014-.005.455-.156.638-.667.598-.307-.024-.645.056-.973.056-.593.002-.784-.19-.784-.807-.002-2.776.016-5.551-.008-8.324-.01-1.172.064-2.342.138-3.506.098-1.508 1.23-2.67 2.815-2.913 1.186-.182 2.374-.116 3.556-.074 1.286.045 2.392.569 3.188 1.64.368.495.39 1.077.395 1.64.026 1.97.01 3.935.01 5.904 0 1.968-.008 3.934.008 5.903.003.336-.055.476-.428.45a12.27 12.27 0 00-1.464-.003c-.322.013-.447-.09-.444-.429.016-2.212-.18-4.421-.093-6.636.056-1.458-.127-2.907-.116-4.365zm-14.118-9.75c.574.103 1.15.066 1.725.15 1.003.149 1.99.376 2.982.564 1.153.217 2.185.019 3.06-.79.98-.906 2.136-1.411 3.454-1.567 1.257-.148 2.508-.215 3.752.103.153.04.357.05.36.251.002.201-.204.217-.355.254-1.262.305-2.532.58-3.786.916-1.466.394-2.916.852-3.993 2.026-.055.061-.124.114-.177.18-.558.717-.897.834-1.715.41-1.645-.851-3.405-1.341-5.204-1.709-.497-.1-1.005-.153-1.51-.203-.215-.022-.353-.138-.58-.284.69-.27 1.35-.415 1.987-.301zM57.433 50.96c.024-.817-.042-1.659.175-2.468.193-.722.743-1.13 1.339-1.5a4.573 4.573 0 012.709-.704c.966.047 1.937-.093 2.897.1 1.212.244 2.204.807 2.744 1.961.206.444.182.968.193 1.453.029 1.513.01 3.026.01 4.537 0 1.429-.01 2.858.003 4.286.021 2.088-1.13 2.831-2.913 3.284-.87.222-1.807.275-2.715.217-1.365-.087-2.714-.28-3.704-1.395-.47-.529-.754-1.156-.76-1.857-.02-2.635-.055-5.276.022-7.914zm-5.278-8.905c0-.352.02-.707-.006-1.056-.026-.363.16-.463.466-.463.503 0 1.005.008 1.51-.003.263-.005.353.109.355.363.006.696-.055 1.397.096 2.087.079.36-.138.51-.445.58-.55.127-1.103.145-1.656-.003-.199-.053-.35-.132-.328-.4.026-.365.008-.735.008-1.105zm-.008 4.947c0-.397.106-.547.513-.516.434.032.876.032 1.31 0 .405-.029.518.114.516.516-.016 2.405-.008 4.808-.008 7.213 0 2.405-.008 4.807.008 7.212.002.426-.156.495-.545.455-.384-.04-.78.045-1.173.056-.415.013-.619-.148-.619-.62.011-4.772.008-9.545-.002-14.316zm-10.07 5.004c1.204.724 2.585 1.013 3.865 1.55 1.085.455 2.138.955 2.662 2.098.153.336.233.701.15 1.122a3.756 3.756 0 00.02 1.497c.29 1.315-.527 2.794-1.813 3.265-1.355.495-2.752.744-4.173.58-1.566-.18-3.069-.566-3.825-2.215-.204-.442-.273-.907-.323-1.37-.069-.627.18-.852.965-.934.4-.043.813-.053 1.21.002.492.07.407.596.576.908.55 1.008 1.728 1.569 2.853 1.273.37-.098.74-.18 1.103-.35.788-.37 1.016-1.076 1.024-1.799.008-.648-.397-1.177-1-1.532-1.114-.656-2.36-.968-3.548-1.431-.791-.31-1.556-.664-2.212-1.204-.51-.418-.81-.99-.876-1.646-.08-.804-.164-1.6-.024-2.423.238-1.39.969-2.31 2.278-2.81.892-.341 1.815-.307 2.807-.294.879-.032 1.823-.037 2.726.3 1.354.504 2.476 1.743 2.312 3.375-.042.426-.325.426-.606.503-1.048.288-1.614.066-2.13-.834-.047-.084-.11-.16-.169-.238-.603-.767-1.453-.942-2.344-.878-.844.06-1.643.28-2.109 1.122-.548.987-.389 1.767.6 2.363zm-1.921-17.521c.021-.162.148-.28.328-.307.137-.021.17.06.159.188.071.206-.14.203-.233.293-.074-.079-.27-.042-.254-.174zm-25.86 21.981c.058-.812.068-1.804.055-2.778-.016-1.132-.058-2.27-.034-3.402.013-.606.008-1.236.267-1.834.51-1.18 1.397-1.833 2.64-2.061 1.045-.193 2.106-.135 3.152-.082 1.524.077 2.92.56 3.587 2.085.413.945.418 2.003.283 3.021-.1.752-.322 1.48-.844 2.088-.6.699-1.375.99-2.254 1.064-.958.082-1.92.106-2.873.217-.635.074-1.045.43-1.27 1.095-.265.775-.291 1.545-.162 2.31.114.664.487 1.177 1.204 1.4 1.016.312 1.974.322 2.903-.268.37-.235.563-.574.73-.955.172-.397.44-.64.923-.571.28.04.572-.008.858.01.648.043.873.413.767 1.056-.077.468-.122.923-.363 1.35-.415.735-1.063 1.148-1.83 1.436-1.995.743-3.99.751-5.927-.127-1.196-.542-1.826-1.553-1.807-2.91.002-.662-.006-1.318-.006-2.144zM83.95 68.813c-18.373-.013-36.743-.01-55.116-.01H10.615c-.963 0-1.175-.178-1.048-1.144.138-1.055.061-2.106.082-3.156.024-1.151.006-1.151 1.146-1.151.908 0 1.818.026 2.725-.005 5.98-.202 11.962-.048 17.944-.096.334-.002.58-.076.77-.402.172-.294.476-.521.807-.624.852-.265.987-.953 1.04-1.688.156-2.16.164-4.326.08-6.485-.062-1.598-.04-3.202-.183-4.797-.151-1.675-.3-3.352-.514-5.022-.174-1.37-.365-2.738-.497-4.114-.053-.558-.5-.744-.95-.897-.383-.132-.762-.254-1.074-.553-.278-.267-.235-.466.053-.63.161-.092.336-.19.238-.357-.095-.161-.315-.225-.526-.161-.061.018-.114.058-.172.087-.94.442-1.556.304-2.247-.484a.618.618 0 00-.476-.225c-1.117.024-1.971-.508-2.72-1.268-.161-.164-.304-.354-.585-.164-.092.064-.299.07-.391.008-.855-.563-1.662.019-2.487.077-.485.034-.971.032-1.458.027-.143-.003-.246-.075-.143-.26.053-.095.013-.243.069-.333.275-.42.02-.677-.286-.881-.384-.254-.728-.466-.233-.942.225-.217-.034-.318-.182-.381-.84-.365-.89-.471-.54-1.302.14-.33.106-.701.267-1.032.072-.148-.074-.235-.214-.33-.664-.45-.651-1.048.026-1.498.252-.167.39-.328.236-.648-.059-.122-.066-.392-.006-.426.617-.336.466-1.1.897-1.543.199-.203.178-.473-.06-.72-.424-.436-.387-.462.193-.732.661-.307 1.434-.543 1.905-1.048.537-.574 1.18-1.21 1.17-2.13-.004-.243.068-.42.224-.622.471-.603.836-1.278 1.336-1.876.336-.4.453-.99.844-1.405.495-.529 1.08-.889 1.754-1.137.94-.347 1.829-.815 2.847-.966.723-.106 1.437-.098 2.146-.053.76.048 1.532.111 2.265.37.135.048.272.09.323.202.217.478.61.553 1.069.518 1.222-.09 2.389.098 3.481.678.268.14.572.148.871.132.643-.04 1.138.267 1.558.706.236.244.302.498-.074.725-.188.114-.439.267-.272.569.159.288.344.468.735.33.895-.314 1.662-.097 2.34.58.632.633 1.192 1.35 1.989 1.813.254.148.286.428.1.648-.492.582-.248 1.095.075 1.638.349.587.9 1.005 1.275 1.569.38.571.18 1.045-.516 1.1-.482.037-.892.013-.659.712.093.275-.22.37-.418.476-.13.072-.291.106-.275.302.016.19.161.196.312.249.68.24.757.576.336 1.214-.28.423-.354.923-.336 1.41.04 1.072-.172 2.127-.103 3.289-.818-.49-1.67-.728-2.37-1.267-.226-.172-.392-.183-.572.079-.408.593-.675 1.175-.143 1.842.106.132.148.312.222.476-.444.042-.852-.019-1.265-.077-.272-.037-.317-.164-.328-.397-.042-1.008-.225-1.225-1.23-1.54a.696.696 0 01-.474-.457c-.092-.286-.206-.305-.415-.096-.534.535-.786 1.233-1.098 1.892-.116.244.077.434.254.6.124.12.333.228.212.45-.09.165-.236.273-.455.244-.167-.024-.358-.03-.416.177-.069.244.151.291.304.381.217.13.532.207.323.58-.182.322-.463.346-.749.2-.367-.185-.703-.185-1.095-.052-.212.071-.33.182-.362.346-.093.49-.46.572-.842.572-.256 0-.484.09-.725.13-.463.074-.479.502-.487.844a21.8 21.8 0 00.368 4.445c.154.838.26 1.69.326 2.542.299 3.9.145 7.808.24 11.71.024.969-.066 1.959.162 2.927.137.585.505.923 1.153.94.328.007.66-.025.98.1.367.143.677.378.759.746.084.376.293.368.574.368 3.416-.003 6.831-.056 10.244.008 11.5.209 23 .029 34.5.082.373.002.473.082.465.463a110.345 110.345 0 000 4.39c.024.496-.124.62-.608.62zm-54.094-9.501c.002.576.1 1.159.09 1.74-.014.71-.186.887-.87.887-.287 0-.572.003-.858 0-.566-.005-.693-.13-.693-.701-.003-2.151 0-4.305 0-6.456V51.25v-9.938c0-.754.193-.897.942-.706.18.047.36.045.54 0 .711-.183.925-.016.941.72.013.616-.087 1.23-.09 1.84-.024 5.382-.024 10.764-.002 16.146z"/><path d="M45.739 33.74c.124.008.28-.098.264-.323-.016-.23-.116-.416-.312-.431-.206-.016-.206.203-.201.396-.072.204.074.347.249.358z"/></svg>