<svg width="21" height="21" viewBox="0 0 21 21" fill="none" xmlns="http://www.w3.org/2000/svg">
<g id="behance">
<path id="Vector" d="M0.5 10.5H4C5.933 10.5 7.5 8.933 7.5 7C7.5 5.067 5.933 3.5 4 3.5H0.5V10.5ZM0.5 10.5H6C7.933 10.5 9.5 12.067 9.5 14C9.5 15.933 7.933 17.5 6 17.5H0.5V10.5ZM12.5 13.5H20.5C20.5 11.2909 18.7091 9.5 16.5 9.5C14.2909 9.5 12.5 11.2909 12.5 13.5ZM12.5 13.5C12.5 15.7091 14.2909 17.5 16.5 17.5C17.3489 17.5 18.1361 17.2356 18.7835 16.7845M12 5.5H21" stroke="#12F3D8"/>
</g>
</svg>
