<svg width="21" height="21" viewBox="0 0 21 21" fill="none" xmlns="http://www.w3.org/2000/svg">
<g id="codepen">
<path id="Vector" d="M10.5 0.5L10.7867 0.0903842C10.6146 -0.0301279 10.3854 -0.0301281 10.2133 0.0903839L10.5 0.5ZM20.5 7.5H21C21 7.33684 20.9204 7.18395 20.7867 7.09038L20.5 7.5ZM20.5 13.5L20.7867 13.9096C20.9204 13.8161 21 13.6632 21 13.5H20.5ZM10.5 20.5L10.2133 20.9096C10.3854 21.0301 10.6146 21.0301 10.7867 20.9096L10.5 20.5ZM0.5 13.5H0C0 13.6632 0.0796056 13.8161 0.213269 13.9096L0.5 13.5ZM0.5 7.5L0.213269 7.09038C0.0796056 7.18395 0 7.33684 0 7.5H0.5ZM10.2133 0.909616L20.2133 7.90962L20.7867 7.09038L10.7867 0.0903842L10.2133 0.909616ZM20 7.5V13.5H21V7.5H20ZM20.2133 13.0904L10.2133 20.0904L10.7867 20.9096L20.7867 13.9096L20.2133 13.0904ZM10.7867 20.0904L0.786731 13.0904L0.213269 13.9096L10.2133 20.9096L10.7867 20.0904ZM1 13.5V7.5H0V13.5H1ZM0.786731 7.90962L10.7867 0.909616L10.2133 0.0903839L0.213269 7.09038L0.786731 7.90962ZM0.786731 13.9096L10.7867 6.90962L10.2133 6.09038L0.213269 13.0904L0.786731 13.9096ZM10.2133 6.90962L20.2133 13.9096L20.7867 13.0904L10.7867 6.09038L10.2133 6.90962ZM0.213269 7.90962L10.2133 14.9096L10.7867 14.0904L0.786731 7.09038L0.213269 7.90962ZM10.7867 14.9096L20.7867 7.90962L20.2133 7.09038L10.2133 14.0904L10.7867 14.9096ZM10 0.499999L10 6.5L11 6.5L11 0.500001L10 0.499999ZM10 14.5L10 20.5L11 20.5L11 14.5L10 14.5Z" fill="#12F3D8"/>
</g>
</svg>
