<svg width="21" height="21" viewBox="0 0 21 21" fill="none" xmlns="http://www.w3.org/2000/svg">
<g id="reddit">
<path id="Vector" d="M14.1941 15.2608L14.6549 15.0666L14.2666 14.1451L13.8059 14.3392L14.1941 15.2608ZM7.19413 14.3392L6.73335 14.1451L6.3451 15.0666L6.80587 15.2608L7.19413 14.3392ZM10.5 2.5L10.5879 2.00779C10.4422 1.98177 10.2925 2.02163 10.179 2.11663C10.0656 2.21163 10 2.35201 10 2.5L10.5 2.5ZM16.0121 3.99219C16.2839 4.04073 16.5437 3.85971 16.5922 3.58787C16.6408 3.31603 16.4597 3.0563 16.1879 3.00776L16.0121 3.99219ZM18 13.3C18 14.4878 17.2563 15.651 15.9022 16.5409C14.5536 17.4272 12.652 18 10.5 18V19C12.8193 19 14.9178 18.3845 16.4514 17.3766C17.9794 16.3724 19 14.9355 19 13.3H18ZM10.5 18C8.34787 18 6.44636 17.4272 5.09778 16.5409C3.74368 15.651 3 14.4878 3 13.3H2C2 14.9355 3.02056 16.3724 4.54857 17.3766C6.0821 18.3845 8.18057 19 10.5 19V18ZM3 13.3C3 12.0959 3.76154 10.7779 5.12605 9.73909C6.47977 8.70849 8.37329 8 10.5 8V7C8.15515 7 6.04869 7.77985 4.5203 8.94343C3.0027 10.0988 2 11.6808 2 13.3H3ZM10.5 8C12.6266 8 14.5202 8.70849 15.8739 9.73909C17.2384 10.7779 18 12.0959 18 13.3H19C19 11.6808 17.9973 10.0988 16.4796 8.94343C14.9512 7.77985 12.8448 7 10.5 7V8ZM13.8059 14.3392C12.8196 14.7547 11.9114 15 10.5 15V16C12.0611 16 13.101 15.7213 14.1941 15.2608L13.8059 14.3392ZM10.5 15C9.08863 15 8.18038 14.7547 7.19413 14.3392L6.80587 15.2608C7.89898 15.7213 8.93891 16 10.5 16V15ZM11 7.5L11 2.5L10 2.5L9.99996 7.5L11 7.5ZM10.4121 2.99221L16.0121 3.99219L16.1879 3.00776L10.5879 2.00779L10.4121 2.99221ZM17.5 4C17.2239 4 17 3.77614 17 3.5H16C16 4.32843 16.6716 5 17.5 5V4ZM18 3.5C18 3.77614 17.7761 4 17.5 4V5C18.3284 5 19 4.32843 19 3.5H18ZM17.5 3C17.7761 3 18 3.22386 18 3.5H19C19 2.67157 18.3284 2 17.5 2V3ZM17.5 2C16.6716 2 16 2.67157 16 3.5H17C17 3.22386 17.2239 3 17.5 3V2ZM7 12H8V11H7V12ZM13 12H14V11H13V12ZM20 10.5C20 11.3284 19.3284 12 18.5 12V13C19.8807 13 21 11.8807 21 10.5H20ZM21 10.5C21 9.11929 19.8807 8 18.5 8V9C19.3284 9 20 9.67157 20 10.5H21ZM17.1231 9.90363C17.3542 9.37098 17.8844 9 18.5 9V8C17.4719 8 16.5898 8.62058 16.2057 9.50557L17.1231 9.90363ZM0 10.5C0 11.8807 1.11929 13 2.5 13V12C1.67157 12 1 11.3284 1 10.5H0ZM1 10.5C1 9.67157 1.67157 9 2.5 9V8C1.11929 8 0 9.11929 0 10.5H1ZM4.79427 9.50557C4.41026 8.62058 3.52816 8 2.5 8V9C3.11565 9 3.64578 9.37098 3.87691 9.90363L4.79427 9.50557Z" fill="#12F3D8"/>
</g>
</svg>
