<svg width="21" height="21" viewBox="0 0 21 21" fill="none" xmlns="http://www.w3.org/2000/svg">
<g id="slack">
<path id="Vector" d="M14.5 10.5V8.5C14.5 7.39543 15.3954 6.5 16.5 6.5C17.6046 6.5 18.5 7.39543 18.5 8.49999C18.5 9.60456 17.6046 10.5 16.5 10.5H14.5ZM14.5 10.5L10.5 10.5M14.5 10.5L14.5 2.5C14.5 1.39543 13.6046 0.5 12.5 0.5C11.3954 0.5 10.5 1.39543 10.5 2.50001V10.5M10.5 10.5L10.5 6.5M10.5 10.5L2.49999 10.5C1.39543 10.5 0.5 9.60456 0.5 8.49999C0.5 7.39543 1.39543 6.5 2.49999 6.5H10.5M10.5 10.5L18.5 10.5C19.6046 10.5 20.5 11.3954 20.5 12.5C20.5 13.6046 19.6046 14.5 18.5 14.5H10.5M10.5 10.5V14.5M10.5 10.5L6.5 10.5M10.5 10.5L10.5 18.5C10.5 19.6046 9.60456 20.5 8.49999 20.5C7.39543 20.5 6.5 19.6046 6.5 18.5V10.5M10.5 6.5V4.49999C10.5 3.39543 9.60456 2.5 8.49999 2.5C7.39543 2.5 6.5 3.39543 6.5 4.5C6.5 5.60457 7.39543 6.5 8.5 6.5H10.5ZM10.5 14.5H12.5C13.6046 14.5 14.5 15.3954 14.5 16.5C14.5 17.6046 13.6046 18.5 12.5 18.5C11.3954 18.5 10.5 17.6046 10.5 16.5V14.5ZM6.5 10.5V12.5C6.5 13.6046 5.60457 14.5 4.5 14.5C3.39543 14.5 2.5 13.6046 2.5 12.5C2.5 11.3954 3.39543 10.5 4.5 10.5H6.5Z" stroke="#12F3D8"/>
</g>
</svg>
