<svg width="21" height="21" viewBox="0 0 21 21" fill="none" xmlns="http://www.w3.org/2000/svg">
<g id="twitch">
<path id="Vector" d="M1.5 1.5V1H1V1.5H1.5ZM19.5 1.5H20V1H19.5V1.5ZM19.5 12.5L19.8536 12.8536L20 12.7071V12.5H19.5ZM15.5 16.5V17H15.7071L15.8536 16.8536L15.5 16.5ZM8.5 16.5V16H8.27003L8.12037 16.1746L8.5 16.5ZM5.5 20H5C5 20.2092 5.13029 20.3963 5.32653 20.4689C5.52277 20.5415 5.74346 20.4843 5.87963 20.3254L5.5 20ZM5.5 16.5H6V16H5.5V16.5ZM1.5 16.5H1V17H1.5V16.5ZM1.5 2H19.5V1H1.5V2ZM19 1.5V12.5H20V1.5H19ZM19.1464 12.1464L15.1464 16.1464L15.8536 16.8536L19.8536 12.8536L19.1464 12.1464ZM15.5 16H8.5V17H15.5V16ZM8.12037 16.1746L5.12037 19.6746L5.87963 20.3254L8.87963 16.8254L8.12037 16.1746ZM6 20V16.5H5V20H6ZM5.5 16H1.5V17H5.5V16ZM2 16.5V1.5H1V16.5H2ZM15 5V12H16V5H15ZM11 5V12H12V5H11Z" fill="#12F3D8"/>
</g>
</svg>
