<svg xmlns="http://www.w3.org/2000/svg" fill="#21b296"  viewBox="0 0 93.398 93.398"><metadata/><path d="M46.278 50.512c-1.023-.612-2.09-.91-2.967-1.586-.281-.215-.49-.228-.715.1-.51.741-.844 1.47-.179 2.304.133.166.186.391.278.596-.556.053-1.066-.023-1.582-.096-.342-.046-.398-.205-.411-.496-.053-1.262-.282-1.533-1.54-1.924a.872.872 0 01-.593-.573c-.115-.358-.258-.38-.52-.12-.668.67-.983 1.544-1.374 2.368-.145.305.096.543.318.752.156.15.42.285.265.563-.112.205-.295.341-.57.305-.208-.03-.446-.037-.52.221-.085.305.19.365.382.477.271.163.665.259.404.726-.229.403-.58.433-.938.251-.46-.232-.88-.232-1.37-.066-.265.09-.414.228-.454.434-.116.612-.576.715-1.053.715-.321 0-.606.113-.907.162-.58.093-.6.63-.61 1.057a27.283 27.283 0 00.46 5.563 31.07 31.07 0 01.408 3.182c.374 4.88.182 9.772.301 14.656.03 1.212-.083 2.45.202 3.662.172.732.633 1.156 1.444 1.176.41.01.824-.03 1.225.126.46.178.848.473.95.933.106.47.368.46.719.46 4.275-.003 8.55-.069 12.822.01 14.39.262 28.785.037 43.176.103.467.004.593.103.583.58-.033 1.831-.04 3.662 0 5.493.013.616-.172.772-.778.772-22.994-.017-45.985-.013-68.979-.013H1.353c-1.205 0-1.47-.222-1.311-1.43.172-1.322.076-2.637.102-3.951.03-1.44.007-1.44 1.434-1.44 1.136 0 2.275.032 3.41-.007 7.485-.252 14.972-.06 22.459-.12.417-.003.725-.096.963-.503a1.81 1.81 0 011.01-.781c1.066-.332 1.235-1.192 1.302-2.113.195-2.702.205-5.414.099-8.116-.076-2-.05-4.007-.229-6.004-.188-2.096-.374-4.195-.642-6.285-.219-1.715-.457-3.427-.623-5.149-.066-.698-.625-.93-1.188-1.122-.48-.166-.954-.318-1.345-.692-.347-.335-.294-.583.066-.789.202-.115.421-.238.299-.447-.12-.202-.395-.281-.66-.202-.076.024-.142.073-.215.11-1.175.553-1.947.38-2.811-.606a.773.773 0 00-.596-.282c-1.397.03-2.467-.635-3.404-1.586-.202-.205-.381-.444-.732-.205-.116.08-.374.086-.49.01-1.07-.706-2.08.023-3.113.096-.606.043-1.215.04-1.824.033-.18-.003-.308-.093-.18-.325.067-.119.017-.304.087-.417.344-.526.026-.848-.358-1.103-.48-.317-.91-.582-.291-1.178.281-.272-.043-.398-.229-.477-1.05-.457-1.112-.59-.675-1.63.175-.413.132-.877.334-1.29.09-.186-.092-.296-.268-.415-.831-.563-.814-1.311.033-1.874.315-.209.487-.41.295-.811-.073-.153-.083-.49-.007-.533.772-.42.583-1.378 1.123-1.93.248-.256.222-.594-.076-.902-.53-.546-.484-.58.242-.917.827-.384 1.794-.679 2.384-1.311.672-.719 1.477-1.513 1.463-2.666-.003-.304.086-.526.282-.778.59-.755 1.046-1.6 1.672-2.348.42-.5.566-1.238 1.056-1.758.62-.662 1.351-1.113 2.196-1.424 1.175-.434 2.288-1.02 3.563-1.209.904-.132 1.798-.122 2.685-.066.95.06 1.918.14 2.835.464.169.06.34.112.404.251.271.6.765.693 1.338.65 1.53-.113 2.99.122 4.357.847.335.176.716.186 1.09.166.804-.05 1.424.334 1.95.884.295.305.378.622-.093.907-.235.143-.55.335-.34.712.198.361.43.586.92.417 1.12-.394 2.08-.122 2.927.726.792.791 1.494 1.688 2.49 2.268.318.185.358.536.126.811-.616.729-.311 1.371.093 2.05.437.735 1.126 1.258 1.596 1.964.477.715.225 1.308-.646 1.377-.602.046-1.116.017-.824.89.116.345-.275.464-.523.597-.163.09-.365.132-.345.377.02.239.202.245.39.312.852.3.948.721.421 1.52-.35.53-.443 1.155-.42 1.764.066 1.342-.202 2.663-.113 4.116z"/><path d="M42.88 65.218c1.1-.04 2.282-.046 3.412.374 1.695.633 3.099 2.183 2.894 4.226-.053.533-.408.533-.759.629-1.31.36-2.02.083-2.665-1.043-.06-.106-.14-.202-.212-.298-.755-.96-1.818-1.18-2.934-1.1-1.056.077-2.056.351-2.64 1.404-.681 1.232-.483 2.21.756 2.957 1.506.908 3.235 1.269 4.838 1.94 1.357.57 2.675 1.196 3.33 2.627.193.42.292.877.19 1.404a4.7 4.7 0 00.023 1.874c.364 1.646-.66 3.497-2.268 4.086-1.696.62-3.444.93-5.222.725-1.96-.225-3.842-.708-4.789-2.771-.255-.553-.34-1.136-.404-1.715-.086-.785.225-1.067 1.209-1.17a6.253 6.253 0 011.513.004c.616.086.51.745.722 1.136.689 1.261 2.162 1.963 3.57 1.593.463-.123.927-.226 1.38-.438.987-.463 1.272-1.347 1.282-2.251.01-.812-.497-1.474-1.252-1.918-1.394-.82-2.953-1.212-4.44-1.791-.99-.387-1.947-.831-2.768-1.507a2.993 2.993 0 01-1.096-2.06c-.1-1.006-.206-2.003-.03-3.033.298-1.738 1.212-2.89 2.85-3.516 1.113-.424 2.27-.384 3.51-.368zM88.846 76.732c0 2.463-.01 4.924.01 7.387.003.421-.07.597-.537.563-.606-.046-1.222-.03-1.83-.003-.405.017-.56-.112-.557-.536.02-2.769-.225-5.534-.116-8.305.073-1.825-.159-3.64-.146-5.464.01-1.311-.54-1.924-1.957-2.222-1.248-.261-2.463-.152-3.576.59-.533.354-.795.804-.772 1.437.014.42.007.84.004 1.261-.04 4.18-.086 8.358-.123 12.534-.006.57-.195.798-.834.748-.384-.03-.808.07-1.219.07-.742.003-.98-.239-.98-1.01-.003-3.474.02-6.948-.01-10.418-.013-1.467.08-2.93.172-4.387.123-1.888 1.54-3.342 3.524-3.646 1.483-.229 2.97-.146 4.45-.093 1.61.056 2.993.712 3.99 2.053.46.62.487 1.348.494 2.053.033 2.46.013 4.924.013 7.388zM22.513 71.417V58.98c0-.944.241-1.123 1.179-.884.225.06.45.056.675 0 .89-.229 1.159-.02 1.179.9.016.772-.11 1.54-.113 2.305-.026 6.735-.026 13.467 0 20.203.004.721.126 1.45.113 2.178-.017.888-.232 1.11-1.09 1.11-.357 0-.715.003-1.072 0-.71-.007-.868-.163-.868-.878-.003-2.692 0-5.387 0-8.08-.003-1.47-.003-2.943-.003-4.417zM56.249 75.126c0 3.01-.01 6.017.01 9.027.003.533-.196.619-.682.57-.48-.05-.977.055-1.467.069-.52.016-.775-.186-.775-.775.016-5.97.016-11.944 0-17.915 0-.496.132-.685.642-.645.543.04 1.096.04 1.64 0 .506-.037.648.142.645.645-.026 3.007-.013 6.014-.013 9.024zM65.514 58.546c.864-.338 1.692-.52 2.49-.378.719.13 1.44.083 2.16.19 1.254.185 2.49.47 3.731.704 1.444.272 2.735.024 3.831-.99 1.225-1.132 2.673-1.765 4.322-1.96 1.572-.185 3.139-.268 4.695.13.192.049.447.062.45.314.004.251-.255.271-.443.318-1.58.38-3.17.725-4.739 1.145-1.834.494-3.649 1.067-4.997 2.537-.07.076-.155.142-.222.225-.698.897-1.122 1.043-2.145.513-2.06-1.066-4.262-1.679-6.514-2.139-.622-.126-1.258-.192-1.89-.255-.272-.026-.444-.172-.729-.354zM87.495 62.556c-1.06.07-2.136-.182-3.206-.493-1.294-.378-2.592-.21-3.89.04-.504.095-1.004.241-1.527.201-.093-.006-.225.043-.248-.109-.02-.126.01-.195.145-.288.848-.573 1.802-.825 2.789-.987 1.533-.252 3.01.007 4.473.477 1.02.328 2.033.053 3.004-.258 1.023-.331 2.04-.202 3.063-.09a.45.45 0 01.404.414c.026.235-.14.288-.348.348-1.503.42-3.013.801-4.66.745zM53.341 59.913c0-.44.027-.884-.006-1.32-.033-.454.198-.58.583-.58.629 0 1.258.01 1.89-.004.328-.006.44.136.444.454.007.871-.07 1.748.12 2.613.099.45-.173.639-.557.725-.689.159-1.38.182-2.073-.003-.248-.067-.437-.166-.41-.5.036-.46.01-.924.01-1.385zM38.934 50.287c.09.259-.176.255-.292.368-.092-.1-.337-.053-.314-.215.026-.202.185-.351.41-.384.173-.027.209.072.196.231zM45.003 49.059c-.006-.242-.01-.517.252-.497.245.02.371.248.39.54.02.281-.175.414-.33.404-.219-.017-.401-.196-.312-.447zM17.426 79.62c-.357-.024-.721.036-1.072-.014-.606-.086-.94.222-1.156.715-.209.477-.45.901-.914 1.196-1.162.738-2.361.725-3.633.334-.897-.278-1.364-.92-1.506-1.752-.166-.96-.13-1.923.202-2.89.281-.828.798-1.279 1.59-1.371 1.191-.14 2.397-.172 3.595-.272 1.1-.092 2.073-.457 2.822-1.33.652-.763.933-1.673 1.056-2.614.169-1.274.165-2.602-.354-3.781-.835-1.904-2.58-2.51-4.49-2.61-1.309-.066-2.633-.139-3.944.103-1.553.285-2.663 1.106-3.305 2.58-.325.748-.318 1.536-.335 2.294-.03 1.418.024 2.845.043 4.259.017 1.218.007 2.46-.07 3.477 0 1.033.01 1.854-.002 2.675-.024 1.7.764 2.964 2.261 3.643 2.42 1.1 4.92 1.09 7.418.159.963-.358 1.771-.874 2.291-1.798.301-.533.361-1.103.454-1.689.142-.798-.143-1.262-.95-1.315zM8.89 72.923c.235-.765-.07-1.537.112-2.13-.106-2.072.802-2.546 2.447-2.82.974-.163 1.865.013 2.739.354.964.377 1.54 1.652 1.205 2.669-.414 1.268-1.093 2.149-2.705 2.06-1.113-.06-2.222.092-3.321.304-.342.066-.563-.156-.477-.437zM72.547 75.288c0-1.894.023-3.788-.013-5.679-.013-.606.02-1.262-.242-1.818-.675-1.447-1.914-2.152-3.434-2.454-1.205-.241-2.42-.066-3.625-.125a5.729 5.729 0 00-3.391.88c-.745.464-1.434.977-1.676 1.878-.271 1.013-.189 2.066-.218 3.09-.096 3.3-.05 6.606-.027 9.907.007.878.361 1.662.95 2.325 1.239 1.394 2.928 1.635 4.636 1.745 1.136.073 2.312.006 3.398-.272 2.232-.566 3.672-1.497 3.646-4.11-.02-1.79-.004-3.579-.004-5.367zm-2.934 2.745c0 .782-.01 1.586-.119 2.365-.139 1.016-.59 1.384-2.126 1.745-1.142.268-2.222.072-3.291-.368-.52-.215-.954-.788-1.017-1.4-.185-1.779-.08-3.557-.116-5.087 0-1.404.027-2.56-.01-3.715-.023-.672.146-1.321.156-1.987.007-.487.325-.854.782-1.093 1.34-.695 2.748-.808 4.149-.338.89.302 1.43.954 1.516 2.024.216 2.616.073 5.235.076 7.854z"/></svg>